<?xml version="1.0" encoding="utf-8"?>
<!-- Generator: Adobe Illustrator 17.0.0, SVG Export Plug-In . SVG Version: 6.00 Build 0)  -->
<!DOCTYPE svg PUBLIC "-//W3C//DTD SVG 1.1//EN" "http://www.w3.org/Graphics/SVG/1.1/DTD/svg11.dtd">
<svg version="1.1"
	 id="Layer_1" xmlns:rdf="http://www.w3.org/1999/02/22-rdf-syntax-ns#" xmlns:svg="http://www.w3.org/2000/svg" xmlns:cc="http://creativecommons.org/ns#" xmlns:dc="http://purl.org/dc/elements/1.1/"
	 xmlns="http://www.w3.org/2000/svg" xmlns:xlink="http://www.w3.org/1999/xlink" x="0px" y="0px" width="30px" height="20px"
	 viewBox="385 390 30 20" enable-background="new 385 390 30 20" xml:space="preserve">
<rect x="385.939" y="392.975" fill="#003876" width="28.104" height="14.049"/>
<g>
	<path fill="#003876" d="M414.042,407.024"/>
	<polygon fill="#FFFFFF" points="385.939,397.657 391.866,397.657 385.939,394.683 385.939,392.975 389.33,392.975 397.622,397.108 
		397.622,392.975 402.292,392.975 402.292,397.108 410.584,392.975 414.004,392.975 414.004,394.683 408.047,397.657 
		414.004,397.657 414.004,402.342 408.047,402.342 414.004,405.317 414.004,407.025 410.584,407.025 402.292,402.891 
		402.292,407.025 397.622,407.025 397.622,402.891 389.33,407.025 385.939,407.025 385.939,405.317 391.866,402.342 
		385.939,402.342 	"/>
	<g>
		<polygon fill="#E03A3E" points="411.798,392.975 402.43,397.66 404.673,397.66 414.004,392.975 		"/>
		<polygon fill="#E03A3E" points="414.004,407.025 404.663,402.342 406.915,402.342 414.004,405.908 		"/>
		<polygon fill="#E03A3E" points="395.324,397.66 385.939,392.975 385.939,394.094 393.062,397.66 		"/>
		<polygon fill="#E03A3E" points="395.305,402.342 385.939,407.025 388.18,407.025 397.548,402.342 		"/>
		<polygon fill="#E03A3E" points="385.939,398.629 398.617,398.629 398.617,392.975 401.361,392.975 401.361,398.629 
			414.004,398.629 414.004,401.373 401.361,401.373 401.361,407.025 398.617,407.025 398.617,401.373 385.939,401.373 		"/>
	</g>
</g>
</svg>
