<?xml version="1.0" encoding="utf-8"?>
<!-- Generator: Adobe Illustrator 17.0.0, SVG Export Plug-In . SVG Version: 6.00 Build 0)  -->
<!DOCTYPE svg PUBLIC "-//W3C//DTD SVG 1.1//EN" "http://www.w3.org/Graphics/SVG/1.1/DTD/svg11.dtd">
<svg version="1.1" id="Layer_1" xmlns="http://www.w3.org/2000/svg" xmlns:xlink="http://www.w3.org/1999/xlink" x="0px" y="0px"
	 width="30px" height="30px" viewBox="25 25 30 30" enable-background="new 25 25 30 30" xml:space="preserve">
<g>
	<path d="M50.849,29.886h-1.964c-0.071-0.83-0.379-2.41-1.652-2.41c-1.272,0-1.579,1.58-1.651,2.41h-1.52
		c-0.072-0.83-0.379-2.41-1.651-2.41c-1.272,0-1.579,1.58-1.651,2.41h-1.52c-0.072-0.83-0.379-2.41-1.652-2.41
		c-1.272,0-1.579,1.58-1.651,2.41h-1.519c-0.072-0.83-0.379-2.41-1.651-2.41c-1.272,0-1.58,1.58-1.651,2.41h-1.964
		c-0.997,0-2.881,0.603-2.881,2.881v1.206c0,0.259,0.21,0.468,0.468,0.468c0.258,0,0.471-0.21,0.471-0.468v-1.206
		c0-1.872,1.743-1.941,1.941-1.941h2.41c0.259,0,0.468-0.21,0.468-0.468c0.003-0.678,0.221-1.945,0.738-1.945
		c0.517,0,0.735,1.266,0.738,1.941c0,0.258,0.209,0.471,0.468,0.471h2.41c0.258,0,0.468-0.21,0.471-0.468
		c0-0.678,0.218-1.945,0.735-1.945c0.517,0,0.735,1.266,0.735,1.941c0,0.258,0.213,0.471,0.471,0.471h2.41
		c0.258,0,0.468-0.21,0.468-0.468c0.003-0.678,0.222-1.945,0.738-1.945c0.517,0,0.735,1.266,0.738,1.941
		c0,0.258,0.209,0.471,0.468,0.471h2.409c0.259,0,0.468-0.21,0.471-0.468c0-0.678,0.218-1.945,0.735-1.945
		c0.517,0,0.736,1.266,0.736,1.941c0,0.258,0.213,0.471,0.471,0.471h2.41c0.081,0,1.944,0.02,1.944,1.941v1.206
		c0,0.259,0.21,0.468,0.468,0.468c0.258,0,0.468-0.21,0.468-0.468v-1.206C53.73,30.489,51.847,29.886,50.849,29.886z"/>
	<path d="M53.262,35.914c-0.258,0-0.468,0.21-0.468,0.468v13.26c0,0.081-0.023,1.945-1.944,1.945H29.151
		c-0.08,0-1.941-0.023-1.941-1.945v-13.26c0-0.258-0.213-0.468-0.471-0.468c-0.259,0-0.468,0.21-0.468,0.468v13.26
		c0,2.281,1.884,2.881,2.881,2.881h21.699c2.277,0,2.881-1.884,2.881-2.881v-13.26C53.73,36.124,53.52,35.914,53.262,35.914z"/>
	<path d="M35.914,44.821c0,0.261,0.21,0.471,0.468,0.471h2.412c0.259,0,0.468-0.21,0.468-0.471c0-0.258-0.209-0.468-0.468-0.468
		h-1.766c0.206-0.322,0.563-0.678,0.893-1.008c0.658-0.66,1.341-1.342,1.341-2.14c0-1.229-1.002-1.675-1.674-1.675
		s-1.675,0.445-1.675,1.675c0,0.258,0.21,0.468,0.468,0.468s0.471-0.21,0.471-0.468c0-0.652,0.517-0.732,0.735-0.735
		c0.124,0,0.735,0.035,0.735,0.735c0,0.408-0.566,0.976-1.065,1.476C36.598,43.342,35.914,44.025,35.914,44.821z"/>
	<path d="M51.317,35.176c0-0.258-0.21-0.468-0.468-0.468H29.151c-0.258,0-0.471,0.21-0.471,0.468c0,0.262,0.212,0.471,0.471,0.471
		h21.699C51.107,35.647,51.317,35.438,51.317,35.176z"/>
	<path d="M34.708,47.233c0,0.258,0.21,0.468,0.468,0.468h9.644c0.261,0,0.472-0.21,0.472-0.468s-0.21-0.468-0.472-0.468h-9.644
		C34.918,46.765,34.708,46.975,34.708,47.233z"/>
	<path d="M42.411,45.292c1.23,0,1.675-1.002,1.675-1.674c0-0.378-0.14-0.858-0.479-1.207c0.339-0.349,0.479-0.83,0.479-1.206
		c0-0.672-0.445-1.675-1.675-1.675c-1.229,0-1.674,1.003-1.674,1.675c0,0.376,0.14,0.856,0.479,1.206
		c-0.339,0.349-0.479,0.829-0.479,1.207C40.737,44.289,41.182,45.292,42.411,45.292z M42.411,44.353
		c-0.652,0-0.733-0.517-0.738-0.733c0.006-0.221,0.086-0.741,0.738-0.741c0.652,0,0.732,0.52,0.738,0.733
		C43.143,43.836,43.063,44.353,42.411,44.353z M42.411,40.469c0.652,0,0.732,0.517,0.738,0.733
		c-0.006,0.221-0.086,0.741-0.738,0.741c-0.652,0-0.733-0.52-0.738-0.732C41.678,40.986,41.759,40.469,42.411,40.469z"/>
</g>
</svg>
