<?xml version="1.0" encoding="utf-8"?>
<!-- Generator: Adobe Illustrator 17.0.0, SVG Export Plug-In . SVG Version: 6.00 Build 0)  -->
<!DOCTYPE svg PUBLIC "-//W3C//DTD SVG 1.1//EN" "http://www.w3.org/Graphics/SVG/1.1/DTD/svg11.dtd">
<svg version="1.1" id="Layer_1" xmlns="http://www.w3.org/2000/svg" xmlns:xlink="http://www.w3.org/1999/xlink" x="0px" y="0px"
	 width="15px" height="15px" viewBox="0 0 15 15" enable-background="new 0 0 15 15" xml:space="preserve">
<path fill="#333333" stroke="#333333" stroke-miterlimit="10" d="M11.297,2.425L7.464,6.567L3.321,2.734
	C3.054,2.487,2.636,2.502,2.389,2.77S2.158,3.456,2.425,3.703l4.143,3.833l-3.833,4.143c-0.247,0.267-0.232,0.685,0.036,0.933
	c0.268,0.248,0.685,0.231,0.933-0.036l3.833-4.143l4.143,3.833c0.267,0.247,0.685,0.232,0.933-0.036
	c0.248-0.268,0.231-0.685-0.036-0.933L8.433,7.464l3.833-4.143c0.247-0.267,0.232-0.685-0.036-0.933S11.544,2.158,11.297,2.425z"/>
</svg>
