<?xml version="1.0" encoding="utf-8"?>
<!-- Generator: Adobe Illustrator 17.0.0, SVG Export Plug-In . SVG Version: 6.00 Build 0)  -->
<!DOCTYPE svg PUBLIC "-//W3C//DTD SVG 1.1//EN" "http://www.w3.org/Graphics/SVG/1.1/DTD/svg11.dtd">
<svg version="1.1" id="Layer_1" xmlns="http://www.w3.org/2000/svg" xmlns:xlink="http://www.w3.org/1999/xlink" x="0px" y="0px"
	 width="30px" height="30px" viewBox="25 25 30 30" enable-background="new 25 25 30 30" xml:space="preserve">
<text transform="matrix(1 0 0 1 7.9132 68.3418)" font-family="'HelveticaNeue-Bold'" font-size="1.4473">Created by Dilon Choudhury</text>
<text transform="matrix(1 0 0 1 7.9132 69.789)" font-family="'HelveticaNeue-Bold'" font-size="1.4473">from the Noun Project</text>
<g transform="translate(0.000000,128.000000) scale(0.100000,-0.100000)">
	<path d="M277.874,1006.482c-14.112-7.807-15.013-13.211-15.313-92.778c0-80.768,1.201-87.673,16.514-94.579
		c4.804-2.102,23.42-3.603,48.641-3.603h40.834l43.236,42.636l42.936,42.636v46.239v46.239l-8.707,8.707l-8.707,8.707h-76.264
		C303.696,1010.386,283.279,1009.485,277.874,1006.482z"/>
	<path d="M492.254,911.603c-3.303-1.201-9.308-5.705-13.211-9.908l-7.206-7.807l18.916-19.817
		c10.509-10.809,20.717-19.516,22.819-19.516c5.405,0,19.216,17.415,19.216,24.32c0,6.906-21.618,31.526-29.425,33.328
		C500.36,913.104,495.256,912.804,492.254,911.603z"/>
	<path d="M426.799,849.151l-32.127-32.127l20.117-20.117l20.117-20.117l29.425,27.323c16.514,15.013,31.226,30.025,32.727,33.328
		c3.003,5.104,0.601,8.407-15.613,24.921c-10.509,10.509-19.817,19.216-20.717,19.216S444.514,867.166,426.799,849.151z"/>
	<path d="M371.552,774.988c-11.109-33.628-12.01-32.727,25.521-20.117l24.621,8.107l-20.417,20.417l-20.417,20.117L371.552,774.988z
		"/>
</g>
</svg>
