<?xml version="1.0" encoding="utf-8"?>
<!-- Generator: Adobe Illustrator 17.0.0, SVG Export Plug-In . SVG Version: 6.00 Build 0)  -->
<!DOCTYPE svg PUBLIC "-//W3C//DTD SVG 1.1//EN" "http://www.w3.org/Graphics/SVG/1.1/DTD/svg11.dtd">
<svg version="1.1" id="Layer_1" xmlns="http://www.w3.org/2000/svg" xmlns:xlink="http://www.w3.org/1999/xlink" x="0px" y="0px"
	 width="20px" height="20px" viewBox="390 390 20 20" enable-background="new 390 390 20 20" xml:space="preserve">
<g>
	<path d="M395.365,402.144c0,0.552,0.447,0.999,0.999,0.999s0.999-0.447,0.999-0.999c0-2.215,1.802-4.017,4.017-4.017h4.621
		l-2.827,2.828c-0.39,0.39-0.39,1.022,0,1.413c0.195,0.195,0.451,0.293,0.706,0.293s0.511-0.098,0.706-0.293l4.532-4.532
		c0.047-0.047,0.089-0.099,0.126-0.154c0.013-0.02,0.022-0.041,0.033-0.061c0.021-0.036,0.042-0.072,0.058-0.111
		c0.011-0.027,0.017-0.056,0.026-0.084c0.011-0.034,0.023-0.067,0.03-0.103c0.01-0.049,0.013-0.099,0.015-0.149
		c0.001-0.015,0.005-0.03,0.005-0.045c0-0.014-0.004-0.027-0.004-0.04c-0.002-0.052-0.005-0.103-0.015-0.154
		c-0.007-0.034-0.019-0.065-0.029-0.097c-0.009-0.03-0.015-0.06-0.027-0.089c-0.015-0.036-0.035-0.069-0.054-0.102
		c-0.013-0.023-0.023-0.047-0.038-0.07c-0.036-0.055-0.078-0.106-0.124-0.153c0,0,0,0,0,0l-4.534-4.533
		c-0.39-0.39-1.023-0.39-1.413,0c-0.39,0.39-0.39,1.023,0,1.413l2.827,2.828h-4.621
		C398.064,396.129,395.365,398.827,395.365,402.144z"/>
	<path d="M408.414,402.498c-0.552,0-0.999,0.447-0.999,0.999v2.331v0.742v0.622h-14.487v-13.519h0.833h0.749h4.704
		c0.552,0,0.999-0.447,0.999-0.999s-0.447-0.999-0.999-0.999h-4.787h-0.666h-0.833c-1.104,0-1.998,0.895-1.998,1.998v13.519
		c0,1.104,0.895,1.998,1.998,1.998h14.487c1.104,0,1.998-0.895,1.998-1.998v-0.622v-0.742v-2.331
		C409.413,402.946,408.966,402.498,408.414,402.498z"/>
</g>
</svg>
